HIERARCHY
ROOT Hips
{
  OFFSET 54.0795 94.1949 17.5696
  CHANNELS 6 Xposition Yposition Zposition Zrotation Xrotation Yrotation
  JOINT spine
  {
    OFFSET 0 7.80059 0.448573
    CHANNELS 3 Zrotation Xrotation Yrotation
    JOINT spine1
    {
      OFFSET 0 10.1364 0
      CHANNELS 3 Zrotation Xrotation Yrotation
      JOINT spine2
      {
        OFFSET 0 9.71251 0
        CHANNELS 3 Zrotation Xrotation Yrotation
        JOINT Neck
        {
          OFFSET 0 24.9361 1.18887
          CHANNELS 3 Zrotation Xrotation Yrotation
          JOINT Head
          {
            OFFSET 0 7.53384 0
            CHANNELS 3 Zrotation Xrotation Yrotation
            End Site
            {
              OFFSET 0 18.2361 -6.01402
            }
          }
        }
        JOINT RightShoulder
        {
          OFFSET -4.08965 10.4888 -0.569457
          CHANNELS 3 Zrotation Xrotation Yrotation
          JOINT RightArm
          {
            OFFSET 0 13.757 0
            CHANNELS 3 Zrotation Xrotation Yrotation
            JOINT RightArmRoll
            {
              OFFSET 0 6.94478 0
              CHANNELS 3 Zrotation Xrotation Yrotation
              JOINT RightForeArm
              {
                OFFSET 0 20.2277 0
                CHANNELS 3 Zrotation Xrotation Yrotation
                JOINT RightForeArmRoll
                {
                  OFFSET 0 7.79312 0
                  CHANNELS 3 Zrotation Xrotation Yrotation
                  JOINT RightHand
                  {
                    OFFSET 0 15.6391 0
                    CHANNELS 3 Zrotation Xrotation Yrotation
                    End Site
                    {
                      OFFSET 0 0 0
                    }
                  }
                }
              }
            }
          }
        }
        JOINT LeftShoulder
        {
          OFFSET 4.08965 10.4888 -0.569457
          CHANNELS 3 Zrotation Xrotation Yrotation
          JOINT LeftArm
          {
            OFFSET 0 13.757 0
            CHANNELS 3 Zrotation Xrotation Yrotation
            JOINT LeftArmRoll
            {
              OFFSET 0 6.94478 0
              CHANNELS 3 Zrotation Xrotation Yrotation
              JOINT LeftForeArm
              {
                OFFSET 0 20.2277 0
                CHANNELS 3 Zrotation Xrotation Yrotation
                JOINT LeftForeArmRoll
                {
                  OFFSET 0 7.79312 0
                  CHANNELS 3 Zrotation Xrotation Yrotation
                  JOINT LeftHand
                  {
                    OFFSET 0 15.6391 0
                    CHANNELS 3 Zrotation Xrotation Yrotation
                    End Site
                    {
                      OFFSET 0 0 0
                    }
                  }
                }
              }
            }
          }
        }
      }
    }
  }
  JOINT RightUpLeg
  {
    OFFSET -6.91416 -1.26788 -1.06358
    CHANNELS 3 Zrotation Xrotation Yrotation
    JOINT RightUpLegRoll
    {
      OFFSET 0 18.3378 0
      CHANNELS 3 Zrotation Xrotation Yrotation
      JOINT RightLeg
      {
        OFFSET 0 -22.7085 0
        CHANNELS 3 Zrotation Xrotation Yrotation
        JOINT RightLegRoll
        {
          OFFSET 0 22.7828 0
          CHANNELS 3 Zrotation Xrotation Yrotation
          JOINT RightFoot
          {
            OFFSET 0 18.9629 0
            CHANNELS 3 Zrotation Xrotation Yrotation
            JOINT RightToeBase
            {
              OFFSET 0 15.852 0
              CHANNELS 3 Zrotation Xrotation Yrotation
              End Site
              {
                OFFSET 0.00671906 7.677 -0.884893
              }
            }
          }
        }
      }
    }
  }
  JOINT LeftUpLeg
  {
    OFFSET 6.91416 -1.26788 -1.06358
    CHANNELS 3 Zrotation Xrotation Yrotation
    JOINT LeftUpLegRoll
    {
      OFFSET 0 18.3379 0
      CHANNELS 3 Zrotation Xrotation Yrotation
      JOINT LeftLeg
      {
        OFFSET 0 22.7084 0
        CHANNELS 3 Zrotation Xrotation Yrotation
        JOINT LeftLegRoll
        {
          OFFSET 0 22.9934 0
          CHANNELS 3 Zrotation Xrotation Yrotation
          JOINT LeftFoot
          {
            OFFSET 0 18.7522 0
            CHANNELS 3 Zrotation Xrotation Yrotation
            JOINT LeftToeBase
            {
              OFFSET 0 15.852 0
              CHANNELS 3 Zrotation Xrotation Yrotation
              End Site
              {
                OFFSET -0.030112 7.677 -0.884893
              }
            }
          }
        }
      }
    }
  }
}
MOTION
Frames: 10
Frame Time: 0.00208333
54.2746 94.2163 17.3951 0.0533535 -5.33785 -0.435268 -0.17343 -0.734929 0.335599 -0.333252 2.53198 0.690796 -0.341909 4.17698 0.696942 -1.68181 15.4579 -0.607102 3.1723 -13.2375 -0.399588 79.3181 -4.2671 -4.01448 92.8873 5.24212 6.42756 2.57984e-006 1.60201e-006 4.54815e-006 15.3809 27.6228 -4.78032 -1.31161e-007 -3.43437e-006 -3 8.02888 -4.95158 0.697773 -67.5387 1.82099 0.121684 -104.968 -3.2876 -1.01851 7.18731e-015 7.95139e-016 -1.04362e-015 -14.0352 40.1928 7.85211 1.41329e-005 4.89774e-007 3 -8.0289 -4.9509 -0.697475 174.513 -1.24517 1.87594 180 7.01565e-015 179.006 178.722 9.79719 179.427 1.8555e-007 -5.90901e-006 -0.00965933 -16.1643 68.8532 20.1746 8.13652 25.233 -3.48722 -178.122 -1.78409 6.05919 4.54188e-006 -4.6773e-006 -1.32164 -4.20657 -10.1839 -0.120352 5.44318e-007 -6.69345e-007 -0.185372 22.1365 70.815 -22.2923 -8.13649 25.2327 3.48773 
54.2831 94.2209 17.4584 0.0575544 -5.34781 -0.428841 -0.173663 -0.731972 0.335506 -0.334664 2.53789 0.690689 -0.343323 4.18289 0.69686 -1.69874 15.4057 -0.608111 3.20959 -13.2153 -0.397229 79.3358 -4.26731 -4.01566 92.8953 5.15381 6.5399 2.57984e-006 1.60201e-006 4.54815e-006 15.3109 27.8519 -4.81102 -1.31161e-007 -3.43437e-006 -3 8.02888 -4.95158 0.697773 -67.5542 1.82461 0.121893 -105.001 -3.30608 -1.27306 8.98258e-015 0 -1.2921e-015 -13.8682 40.3345 7.80824 1.41329e-005 4.89774e-007 3 -8.0289 -4.9509 -0.697475 174.51 -1.25154 1.87615 180 7.01565e-015 179.006 178.726 9.81374 179.427 1.8555e-007 -5.90901e-006 -0.00958246 -16.1731 68.8656 20.1851 8.13652 25.233 -3.48722 -178.126 -1.79939 6.06099 4.54188e-006 -4.6773e-006 -1.32166 -4.20458 -10.1784 -0.119749 5.44318e-007 -6.69345e-007 -0.185421 22.1322 70.813 -22.2898 -8.13649 25.2327 3.48773 
54.2816 94.2198 17.4477 0.0618862 -5.35779 -0.42255 -0.173804 -0.729178 0.33541 -0.335928 2.54347 0.690567 -0.344587 4.18847 0.696759 -1.71871 15.3571 -0.608518 3.2495 -13.1951 -0.394505 79.3529 -4.26729 -4.01671 92.9048 5.06783 6.65621 2.57984e-006 1.60201e-006 4.54815e-006 15.2405 28.0714 -4.84079 -1.31161e-007 -3.43437e-006 -3 8.02888 -4.95158 0.697773 -67.5723 1.82984 0.121617 -105.032 -3.32379 -1.52883 -1.38528e-014 0 5.96354e-016 -13.7005 40.4716 7.76414 1.41329e-005 4.89774e-007 3 -8.0289 -4.9509 -0.697475 174.507 -1.25782 1.87662 180 7.01565e-015 179.006 178.73 9.83053 179.426 1.8555e-007 -5.90901e-006 -0.00952538 -16.1819 68.8782 20.1958 8.13652 25.233 -3.48722 -178.129 -1.81487 6.06345 4.54188e-006 -4.6773e-006 -1.32169 -4.20202 -10.1727 -0.11905 5.44318e-007 -6.69345e-007 -0.185496 22.1276 70.8111 -22.2875 -8.13649 25.2327 3.48773 
54.2803 94.2176 17.4241 0.0663102 -5.36779 -0.416353 -0.173883 -0.726497 0.335313 -0.337087 2.54883 0.690434 -0.345746 4.19383 0.696646 -1.74081 15.311 -0.608506 3.29126 -13.1764 -0.391527 79.3694 -4.26711 -4.01767 92.9154 4.98349 6.77528 2.57984e-006 1.60201e-006 4.54815e-006 15.1698 28.284 -4.86995 -1.31161e-007 -3.43437e-006 -3 8.02888 -4.95158 0.697773 -67.5922 1.83618 0.121003 -105.061 -3.34094 -1.78547 -1.30452e-015 0 -0 -13.5322 40.6054 7.71982 1.41329e-005 4.89774e-007 3 -8.0289 -4.9509 -0.697475 174.504 -1.26404 1.87728 180 7.01565e-015 179.006 178.735 9.84749 179.426 1.8555e-007 -5.90901e-006 -0.00948215 -16.1909 68.8908 20.2065 8.13652 25.233 -3.48722 -178.133 -1.83047 6.06636 4.54188e-006 -4.6773e-006 -1.32173 -4.19906 -10.1671 -0.118281 5.44318e-007 -6.69345e-007 -0.185587 22.1227 70.8093 -22.2851 -8.13649 25.2327 3.48773 
54.2859 94.2191 17.4448 0.0707878 -5.37779 -0.410211 -0.173924 -0.72388 0.335214 -0.338187 2.55406 0.690294 -0.346846 4.19906 0.696526 -1.76413 15.2662 -0.608254 3.33407 -13.1586 -0.388403 79.3857 -4.26683 -4.01858 92.9268 4.90009 6.89593 2.57984e-006 1.60201e-006 4.54815e-006 15.0992 28.4927 -4.89882 -1.31161e-007 -3.43437e-006 -3 8.02888 -4.95158 0.697773 -67.6131 1.84316 0.120196 -105.09 -3.35774 -2.0426 -1.29955e-014 -7.95139e-016 7.95139e-016 -13.3636 40.7375 7.67532 1.41329e-005 4.89774e-007 3 -8.0289 -4.9509 -0.697475 174.5 -1.27023 1.87805 180 7.01565e-015 179.006 178.739 9.86456 179.425 1.8555e-007 -5.90901e-006 -0.00944685 -16.2 68.9034 20.2173 8.13652 25.233 -3.48722 -178.137 -1.84613 6.06954 4.54188e-006 -4.6773e-006 -1.32178 -4.19587 -10.1614 -0.117474 5.44318e-007 -6.69345e-007 -0.185688 22.1178 70.8075 -22.2828 -8.13649 25.2327 3.48773 
54.285 94.2172 17.4503 0.0752804 -5.38779 -0.404081 -0.173957 -0.72128 0.335115 -0.339272 2.55925 0.690153 -0.347931 4.20426 0.696403 -1.78775 15.2219 -0.607942 3.37714 -13.141 -0.385243 79.402 -4.26653 -4.01948 92.9386 4.81695 7.01695 2.57984e-006 1.60201e-006 4.54815e-006 15.0287 28.7004 -4.92776 -1.31161e-007 -3.43437e-006 -3 8.02888 -4.95158 0.697773 -67.6343 1.8503 0.11934 -105.118 -3.37439 -2.29987 -3.45388e-015 -7.95139e-016 -1.98785e-016 -13.1946 40.869 7.63068 1.41329e-005 4.89774e-007 3 -8.0289 -4.9509 -0.697475 174.497 -1.27641 1.87885 180 7.01565e-015 179.006 178.743 9.88165 179.425 1.8555e-007 -5.90901e-006 -0.00941352 -16.2091 68.9161 20.2282 8.13652 25.233 -3.48722 -178.141 -1.86181 6.07278 4.54188e-006 -4.6773e-006 -1.32183 -4.19262 -10.1557 -0.116657 5.44318e-007 -6.69345e-007 -0.185791 22.1128 70.8057 -22.2805 -8.13649 25.2327 3.48773 
54.2862 94.2181 17.4573 0.0797495 -5.3978 -0.397924 -0.174008 -0.718647 0.335017 -0.340386 2.56452 0.690015 -0.349046 4.20952 0.696285 -1.81076 15.1768 -0.607751 3.41968 -13.123 -0.382157 79.4183 -4.26628 -4.0204 92.9506 4.73336 7.13717 2.57984e-006 1.60201e-006 4.54815e-006 14.9585 28.9101 -4.95712 -1.31161e-007 -3.43437e-006 -3 8.02888 -4.95158 0.697773 -67.655 1.85712 0.118581 -105.147 -3.39111 -2.5569 -1.42628e-014 -7.95139e-016 7.95139e-016 -13.0255 41.0015 7.58592 1.41329e-005 4.89774e-007 3 -8.0289 -4.9509 -0.697475 174.493 -1.28261 1.87959 180 7.01565e-015 179.006 178.747 9.8987 179.424 1.8555e-007 -5.90901e-006 -0.00937623 -16.2181 68.9288 20.239 8.13652 25.233 -3.48722 -178.145 -1.87746 6.07589 4.54188e-006 -4.6773e-006 -1.32187 -4.18949 -10.15 -0.11586 5.44318e-007 -6.69345e-007 -0.18589 22.1079 70.8039 -22.2782 -8.13649 25.2327 3.48773 
54.2906 94.2145 17.448 0.0841564 -5.40779 -0.3917 -0.174105 -0.715934 0.33492 -0.341575 2.56994 0.689885 -0.350235 4.21494 0.696175 -1.83226 15.13 -0.607861 3.4609 -13.1039 -0.379254 79.435 -4.26614 -4.02139 92.9624 4.64864 7.25539 2.57984e-006 1.60201e-006 4.54815e-006 14.889 29.1246 -4.98725 -1.31161e-007 -3.43437e-006 -3 8.02888 -4.95158 0.697773 -67.6743 1.86315 0.118063 -105.177 -3.4081 -2.81333 -5.01931e-015 0 7.95139e-016 -12.8562 41.1363 7.54107 1.41329e-005 4.89774e-007 3 -8.0289 -4.9509 -0.697475 174.49 -1.28885 1.8802 180 7.01565e-015 179.006 178.751 9.91563 179.424 1.8555e-007 -5.90901e-006 -0.00932904 -16.2271 68.9413 20.2498 8.13652 25.233 -3.48722 -178.149 -1.89302 6.07868 4.54188e-006 -4.6773e-006 -1.32191 -4.18665 -10.1443 -0.115111 5.44318e-007 -6.69345e-007 -0.185976 22.1031 70.8021 -22.2759 -8.13649 25.2327 3.48773 
54.293 94.2152 17.4594 0.0884628 -5.41776 -0.385367 -0.174273 -0.713091 0.334826 -0.342883 2.57562 0.689767 -0.351543 4.22062 0.69608 -1.85132 15.0803 -0.60845 3.50002 -13.0831 -0.376642 79.4523 -4.26619 -4.02248 92.9736 4.5621 7.37042 2.57984e-006 1.60201e-006 4.54815e-006 14.8204 29.3468 -5.01853 -1.31161e-007 -3.43437e-006 -3 8.02888 -4.95158 0.697773 -67.6917 1.86789 0.117933 -105.21 -3.42558 -3.0688 3.72721e-016 0 -3.97569e-016 -12.6869 41.2748 7.49616 1.41329e-005 4.89774e-007 3 -8.0289 -4.9509 -0.697475 174.487 -1.29515 1.88059 180 7.01565e-015 179.006 178.756 9.93232 179.423 1.8555e-007 -5.90901e-006 -0.00926603 -16.2361 68.9538 20.2605 8.13652 25.233 -3.48722 -178.152 -1.90844 6.08094 4.54188e-006 -4.6773e-006 -1.32194 -4.18426 -10.1387 -0.114441 5.44318e-007 -6.69345e-007 -0.186043 22.0986 70.8002 -22.2735 -8.13649 25.2327 3.48773 
54.2959 94.2144 17.4554 0.09263 -5.42772 -0.378885 -0.174542 -0.71007 0.334734 -0.344355 2.58166 0.689666 -0.353016 4.22666 0.696005 -1.86703 15.0267 -0.6097 3.53623 -13.06 -0.374433 79.4702 -4.2665 -4.02371 92.9839 4.47304 7.48107 2.57984e-006 1.60201e-006 4.54815e-006 14.7529 29.5797 -5.05135 -1.31161e-007 -3.43437e-006 -3 8.02888 -4.95158 0.697773 -67.7061 1.87088 0.118335 -105.245 -3.44376 -3.32293 -6.65929e-015 -7.95139e-016 -0 -12.5178 41.4183 7.45121 1.41329e-005 4.89774e-007 3 -8.0289 -4.9509 -0.697475 174.484 -1.30156 1.88069 180 7.01565e-015 179.006 178.76 9.94877 179.423 1.8555e-007 -5.90901e-006 -0.00918124 -16.2449 68.9662 20.2711 8.13652 25.233 -3.48722 -178.155 -1.92368 6.08248 4.54188e-006 -4.6773e-006 -1.32196 -4.18249 -10.1332 -0.113878 5.44318e-007 -6.69345e-007 -0.186084 22.0944 70.7981 -22.2711 -8.13649 25.2327 3.48773 
